<svg xmlns="http://www.w3.org/2000/svg" xmlns:xlink="http://www.w3.org/1999/xlink" viewBox="0 0 96 44"><path d="M 41.123 22.491 C 41.123 33.595 32.139 42.593 21.062 42.593 C 9.984 42.593 1 33.595 1 22.491 C 1 11.386 9.984 2.388 21.062 2.388 C 32.139 2.388 41.123 11.386 41.123 22.491 Z" fill="transparent" stroke-width="2" stroke="#f74a53" stroke-miterlimit="10" stroke-dasharray=""></path><path d="M 95 22.491 C 95 33.595 86.016 42.593 74.939 42.593 C 63.861 42.593 54.877 33.595 54.877 22.491 C 54.877 11.386 63.861 2.388 74.939 2.388 C 86.016 2.388 95 11.386 95 22.491 Z" fill="#f74a53" stroke-width="2" stroke="#f74a53" stroke-miterlimit="10" stroke-dasharray=""></path><path d="M 42.122 44 L -0 1.795 L 1.385 0.406 L 43.508 42.612 Z" fill="#f74a53"></path><path d="M 0.001 42.205 L 42.123 -0 L 43.508 1.388 L 1.386 43.593 Z" fill="#f74a53"></path></svg>